<svg width="63" height="51" viewBox="0 0 63 51" fill="none"
    xmlns="http://www.w3.org/2000/svg">
    <path fill-rule="evenodd" clip-rule="evenodd" d="M13.0851 0C9.49036 0 6.83095 3.14754 6.94981 6.56086C7.064 9.83969 6.91573 14.087 5.84669 17.5502C4.77446 21.024 2.96162 23.2198 0 23.502V26.7012C2.96174 26.9833 4.77446 29.1791 5.84669 32.653C6.91573 36.1161 7.064 40.3634 6.94993 43.6424C6.83095 47.0556 9.49036 50.2031 13.0851 50.2031H49.9195C53.5142 50.2031 56.1736 47.0556 56.0547 43.6424C55.9406 40.3634 56.0888 36.1161 57.1577 32.653C58.2301 29.1791 60.0384 26.9833 63 26.7012V23.502C60.0384 23.2198 58.2301 21.024 57.1577 17.5502C56.0888 14.087 55.9406 9.83969 56.0547 6.56086C56.1736 3.14754 53.5142 0 49.9195 0H13.0851ZM28.9531 33.7143H27.9766C27.4372 33.7143 27 34.1515 27 34.6909V37.0234C27 37.5628 27.4372 38 27.9766 38H35.3984C35.9378 38 36.375 37.5628 36.375 37.0234V34.6909C36.375 34.1515 35.9378 33.7143 35.3984 33.7143H34.4219V23.3516C34.4219 22.8122 33.9847 22.375 33.4453 22.375H27.9766C27.4372 22.375 27 22.8122 27 23.3516V25.6841C27 26.2235 27.4372 26.6607 27.9766 26.6607H28.9531V33.7143ZM28.1719 16.5156C28.1719 14.574 29.7458 13 31.6875 13C33.6291 13 35.2031 14.574 35.2031 16.5156C35.2031 18.4573 33.6292 20.0312 31.6875 20.0312C29.7458 20.0312 28.1719 18.4573 28.1719 16.5156Z" fill="#e9f1f7"/>
</svg>
