<svg width="25" height="19" viewBox="0 0 25 19" fill="none" xmlns="http://www.w3.org/2000/svg">
<path d="M7.5 9.5C9.91797 9.5 11.875 7.54297 11.875 5.125C11.875 2.70703 9.91797 0.75 7.5 0.75C5.08203 0.75 3.125 2.70703 3.125 5.125C3.125 7.54297 5.08203 9.5 7.5 9.5ZM10.5 10.75H10.1758C9.36328 11.1406 8.46094 11.375 7.5 11.375C6.53906 11.375 5.64062 11.1406 4.82422 10.75H4.5C2.01562 10.75 0 12.7656 0 15.25V16.375C0 17.4102 0.839844 18.25 1.875 18.25H13.125C14.1602 18.25 15 17.4102 15 16.375V15.25C15 12.7656 12.9844 10.75 10.5 10.75ZM18.75 9.5C20.8203 9.5 22.5 7.82031 22.5 5.75C22.5 3.67969 20.8203 2 18.75 2C16.6797 2 15 3.67969 15 5.75C15 7.82031 16.6797 9.5 18.75 9.5ZM20.625 10.75H20.4766C19.9336 10.9375 19.3594 11.0625 18.75 11.0625C18.1406 11.0625 17.5664 10.9375 17.0234 10.75H16.875C16.0781 10.75 15.3438 10.9805 14.6992 11.3516C15.6523 12.3789 16.25 13.7422 16.25 15.25V16.75C16.25 16.8359 16.2305 16.918 16.2266 17H23.125C24.1602 17 25 16.1602 25 15.125C25 12.707 23.043 10.75 20.625 10.75Z" fill="#E9F1F7"/>
</svg>
